<?xml version="1.0" standalone="no"?><!DOCTYPE svg PUBLIC "-//W3C//DTD SVG 1.1//EN"
        "http://www.w3.org/Graphics/SVG/1.1/DTD/svg11.dtd">
<svg t="1607677977086" class="icon" viewBox="0 0 1024 1024" version="1.1" xmlns="http://www.w3.org/2000/svg" p-id="2679"
     xmlns:xlink="http://www.w3.org/1999/xlink" width="128" height="128">
    <defs>
        <style type="text/css"></style>
    </defs>
    <path d="M63.993385 161.535674c0-22.85982 18.62652-41.521618 41.451063-41.521618h303.104282c22.824543 0 41.451063 18.661798 41.451063 41.521618V182.737451h124.035691v-21.201777c0-22.85982 18.62652-41.521618 41.451063-41.521618h303.104282c22.789265 0 41.451063 18.661798 41.451063 41.521618v105.97361c0 22.85982-18.62652 41.521618-41.451063 41.521618h-303.174837c-22.789265 0-41.451063-18.661798-41.451063-41.521618v-21.201777h-123.965136v21.201777c0 22.85982-18.62652 41.521618-41.451063 41.521618H105.444448c-22.789265 0-41.451063-18.661798-41.451063-41.521618V161.535674z m0 297.530437c0-22.85982 18.62652-41.521618 41.451063-41.521618h303.104282c22.824543 0 41.451063 18.661798 41.451063 41.521618v21.201778h124.035691v-21.201778c0-22.85982 18.62652-41.521618 41.451063-41.521618h303.104282c22.789265 0 41.451063 18.661798 41.451063 41.521618v105.903056c0 22.85982-18.62652 41.521618-41.451063 41.521617h-303.174837c-22.789265 0-41.451063-18.661798-41.451063-41.521617v-21.201778h-123.965136v21.201778c0 22.85982-18.62652 41.521618-41.451063 41.521617H105.444448c-22.789265 0-41.451063-18.661798-41.451063-41.521617v-105.903056zM959.900782 862.464326c0 22.85982-18.62652 41.521618-41.451063 41.521618h-303.104282c-22.789265 0-41.451063-18.661798-41.451063-41.521618v-21.201777h-123.965136v21.201777c0 22.85982-18.62652 41.521618-41.451063 41.521618h-303.033727c-22.789265 0-41.451063-18.661798-41.451063-41.521618v-105.97361c0-22.85982 18.62652-41.521618 41.451063-41.521618h303.104282c22.824543 0 41.451063 18.661798 41.451063 41.521618v21.201777h124.035691v-21.201777c0-22.85982 18.62652-41.521618 41.451063-41.521618h303.104282c22.789265 0 41.451063 18.661798 41.451063 41.521618v105.97361h-0.14111z m0 0"
          fill="#333333" p-id="2680"></path>
</svg>
