<?xml version="1.0" standalone="no"?><!DOCTYPE svg PUBLIC "-//W3C//DTD SVG 1.1//EN"
        "http://www.w3.org/Graphics/SVG/1.1/DTD/svg11.dtd">
<svg t="1607671272745" class="icon" viewBox="0 0 1024 1024" version="1.1" xmlns="http://www.w3.org/2000/svg" p-id="1620"
     xmlns:xlink="http://www.w3.org/1999/xlink" width="128" height="128">
    <defs>
        <style type="text/css"></style>
    </defs>
    <path d="M663.9 681.2H633c-1 0-1.8 0.8-1.8 1.8v13.6c0 1-0.8 1.8-1.8 1.8h-48.2c-1 0-1.8 0.8-1.8 1.8v30.9c0 1 0.8 1.8 1.8 1.8h48.2c1 0 1.8 0.8 1.8 1.8v13.6c0 1 0.8 1.8 1.8 1.8h30.9c1 0 1.8-0.8 1.8-1.8v-13.6c0-1 0.8-1.8 1.8-1.8h206.8c1 0 1.8-0.8 1.8-1.8v-30.9c0-1-0.8-1.8-1.8-1.8H667.6c-1 0-1.8-0.8-1.8-1.8V683c-0.1-0.9-0.9-1.8-1.9-1.8zM832.2 776.3h-30.9c-1 0-1.8 0.8-1.8 1.8v13.6c0 1-0.8 1.8-1.8 1.8H581.2c-1 0-1.8 0.8-1.8 1.8v30.9c0 1 0.8 1.8 1.8 1.8h216.5c1 0 1.8 0.8 1.8 1.8v13.6c0 1 0.8 1.8 1.8 1.8h30.9c1 0 1.8-0.8 1.8-1.8v-13.6c0-1 0.8-1.8 1.8-1.8h38.4c1 0 1.8-0.8 1.8-1.8v-30.9c0-1-0.8-1.8-1.8-1.8h-38.4c-1 0-1.8-0.8-1.8-1.8v-13.6c0-1-0.8-1.8-1.8-1.8zM832.2 586.2h-30.9c-1 0-1.8 0.8-1.8 1.8v13.6c0 1-0.8 1.8-1.8 1.8H581.2c-1 0-1.8 0.8-1.8 1.8v30.9c0 1 0.8 1.8 1.8 1.8h216.5c1 0 1.8 0.8 1.8 1.8v13.6c0 1 0.8 1.8 1.8 1.8h30.9c1 0 1.8-0.8 1.8-1.8v-13.6c0-1 0.8-1.8 1.8-1.8h38.4c1 0 1.8-0.8 1.8-1.8v-30.9c0-1-0.8-1.8-1.8-1.8h-38.4c-1 0-1.8-0.8-1.8-1.8V588c0-1-0.8-1.8-1.8-1.8zM847.5 177v249.2H598.3V177h249.2m46.2-48H552.1c-1 0-1.8 0.8-1.8 1.8v341.6c0 1 0.8 1.8 1.8 1.8h341.6c1 0 1.8-0.8 1.8-1.8V130.8c0-1-0.8-1.8-1.8-1.8zM425.7 177v249.2H176.5V177h249.2m46.2-48H130.3c-1 0-1.8 0.8-1.8 1.8v341.6c0 1 0.8 1.8 1.8 1.8h341.6c1 0 1.8-0.8 1.8-1.8V130.8c0-1-0.8-1.8-1.8-1.8zM425.7 597.8V847H176.5V597.8h249.2m46.2-48H130.3c-1 0-1.8 0.8-1.8 1.8v341.6c0 1 0.8 1.8 1.8 1.8h341.6c1 0 1.8-0.8 1.8-1.8V551.6c0-1-0.8-1.8-1.8-1.8z"
          p-id="1621"></path>
</svg>
